<svg width="76" height="76" viewBox="0 0 76 76" fill="none" xmlns="http://www.w3.org/2000/svg">
<g id="fluent:chat-48-filled">
<path id="Vector" d="M7.03324 38.35C7.03324 21.1367 20.9866 7.18333 38.1999 7.18333C55.4132 7.18333 69.3666 21.1367 69.3666 38.35C69.3666 55.5633 55.4132 69.5167 38.1999 69.5167C33.0109 69.5242 27.9029 68.2308 23.3428 65.7548L10.5099 69.4045C8.45444 69.9888 6.55639 68.0892 7.14076 66.0353L10.7904 53.1978C8.31735 48.6401 7.02564 43.5354 7.03324 38.35ZM25.7332 32.5063C25.7332 33.5815 26.6059 34.4542 27.6812 34.4542H48.7187C48.9745 34.4542 49.2278 34.4038 49.4641 34.3059C49.7004 34.208 49.9152 34.0645 50.096 33.8836C50.2769 33.7028 50.4204 33.488 50.5183 33.2517C50.6162 33.0154 50.6666 32.7621 50.6666 32.5063C50.6666 32.2504 50.6162 31.9971 50.5183 31.7608C50.4204 31.5245 50.2769 31.3097 50.096 31.1289C49.9152 30.948 49.7004 30.8045 49.4641 30.7066C49.2278 30.6087 48.9745 30.5583 48.7187 30.5583H27.6812C26.6059 30.5583 25.7332 31.431 25.7332 32.5063ZM27.6812 42.2458C27.1645 42.2458 26.6691 42.4511 26.3038 42.8164C25.9385 43.1817 25.7332 43.6771 25.7332 44.1937C25.7332 44.7104 25.9385 45.2058 26.3038 45.5711C26.6691 45.9364 27.1645 46.1417 27.6812 46.1417H42.4853C43.0019 46.1417 43.4974 45.9364 43.8627 45.5711C44.228 45.2058 44.4332 44.7104 44.4332 44.1937C44.4332 43.6771 44.228 43.1817 43.8627 42.8164C43.4974 42.4511 43.0019 42.2458 42.4853 42.2458H27.6812Z" fill="#3385D9"/>
</g>
</svg>
