<svg width="35" height="35" viewBox="0 0 35 35" fill="none" xmlns="http://www.w3.org/2000/svg">
<g id="mdi:twitter">
<path id="Vector" d="M32.7539 8.74998C31.631 9.2604 30.4206 9.59581 29.1664 9.75623C30.4498 8.98331 31.4414 7.75831 31.9081 6.2854C30.6977 7.01456 29.356 7.52498 27.9414 7.81665C26.7894 6.56248 25.1706 5.83331 23.3331 5.83331C19.906 5.83331 17.106 8.63331 17.106 12.0896C17.106 12.5854 17.1644 13.0666 17.2664 13.5187C12.0748 13.2562 7.45186 10.7625 4.37477 6.9854C3.83519 7.90415 3.52894 8.98331 3.52894 10.1208C3.52894 12.2937 4.62269 14.2187 6.31436 15.3125C5.27894 15.3125 4.31644 15.0208 3.47061 14.5833V14.6271C3.47061 17.6604 5.62894 20.1979 8.48727 20.7666C7.56958 21.0178 6.60616 21.0527 5.67269 20.8687C6.06878 22.1119 6.84451 23.1997 7.89084 23.9793C8.93716 24.7588 10.2015 25.1908 11.506 25.2146C9.29465 26.9652 6.55352 27.9115 3.73311 27.8979C3.23727 27.8979 2.74144 27.8687 2.24561 27.8104C5.01644 29.5896 8.31227 30.625 11.8414 30.625C23.3331 30.625 29.6477 21.0875 29.6477 12.8187C29.6477 12.5416 29.6477 12.2791 29.6331 12.0021C30.8581 11.1271 31.9081 10.0187 32.7539 8.74998Z" fill="#2C70EC"/>
</g>
</svg>
